<svg width="330" height="32" viewBox="0 0 330 32" fill="none" xmlns="http://www.w3.org/2000/svg">
<path d="M52.6577 6.9375V24H49.728V9.28125H42.1459V24H39.2162V6.9375H52.6577ZM62.4372 17.6367H57.9958V15.3047H62.4372C63.2106 15.3047 63.8356 15.1797 64.3122 14.9297C64.7887 14.6797 65.1364 14.3359 65.3552 13.8984C65.5817 13.4531 65.695 12.9453 65.695 12.375C65.695 11.8359 65.5817 11.332 65.3552 10.8633C65.1364 10.3867 64.7887 10.0039 64.3122 9.71484C63.8356 9.42578 63.2106 9.28125 62.4372 9.28125H58.8981V24H55.9567V6.9375H62.4372C63.7575 6.9375 64.8786 7.17188 65.8005 7.64062C66.7302 8.10156 67.4372 8.74219 67.9216 9.5625C68.4059 10.375 68.6481 11.3047 68.6481 12.3516C68.6481 13.4531 68.4059 14.3984 67.9216 15.1875C67.4372 15.9766 66.7302 16.582 65.8005 17.0039C64.8786 17.4258 63.7575 17.6367 62.4372 17.6367ZM84.6503 15V15.9375C84.6503 17.2266 84.4823 18.3828 84.1464 19.4062C83.8105 20.4297 83.33 21.3008 82.705 22.0195C82.0878 22.7383 81.3456 23.2891 80.4784 23.6719C79.6112 24.0469 78.6503 24.2344 77.5956 24.2344C76.5487 24.2344 75.5917 24.0469 74.7245 23.6719C73.8652 23.2891 73.1191 22.7383 72.4862 22.0195C71.8534 21.3008 71.3612 20.4297 71.0097 19.4062C70.6659 18.3828 70.4941 17.2266 70.4941 15.9375V15C70.4941 13.7109 70.6659 12.5586 71.0097 11.543C71.3534 10.5195 71.8378 9.64844 72.4628 8.92969C73.0956 8.20312 73.8417 7.65234 74.7011 7.27734C75.5683 6.89453 76.5253 6.70312 77.5722 6.70312C78.6269 6.70312 79.5878 6.89453 80.455 7.27734C81.3222 7.65234 82.0683 8.20312 82.6933 8.92969C83.3183 9.64844 83.7987 10.5195 84.1347 11.543C84.4784 12.5586 84.6503 13.7109 84.6503 15ZM81.7089 15.9375V14.9766C81.7089 14.0234 81.6152 13.1836 81.4277 12.457C81.248 11.7227 80.9784 11.1094 80.6191 10.6172C80.2675 10.1172 79.8339 9.74219 79.3183 9.49219C78.8027 9.23438 78.2206 9.10547 77.5722 9.10547C76.9237 9.10547 76.3456 9.23438 75.8378 9.49219C75.33 9.74219 74.8964 10.1172 74.537 10.6172C74.1855 11.1094 73.9159 11.7227 73.7284 12.457C73.5409 13.1836 73.4472 14.0234 73.4472 14.9766V15.9375C73.4472 16.8906 73.5409 17.7344 73.7284 18.4688C73.9159 19.2031 74.1894 19.8242 74.5487 20.332C74.9159 20.832 75.3534 21.2109 75.8612 21.4688C76.3691 21.7188 76.9472 21.8438 77.5956 21.8438C78.2519 21.8438 78.8339 21.7188 79.3417 21.4688C79.8495 21.2109 80.2792 20.832 80.6308 20.332C80.9823 19.8242 81.248 19.2031 81.4277 18.4688C81.6152 17.7344 81.7089 16.8906 81.7089 15.9375ZM100.43 21.668V24H87.8556V21.668H100.43ZM88.5822 21.668V28.1953H85.7697L85.6642 21.668H88.5822ZM102.703 21.668L102.527 28.1836H99.7619V21.668H102.703ZM98.3673 6.9375V9.28125H90.4923V6.9375H98.3673ZM100.617 6.9375V24H97.6877V6.9375H100.617ZM89.9064 6.9375H92.8478L92.4377 13.8516C92.3752 14.9453 92.2619 15.9297 92.0978 16.8047C91.9337 17.6797 91.7345 18.4648 91.5002 19.1602C91.2736 19.8477 91.0158 20.457 90.7267 20.9883C90.4377 21.5117 90.1291 21.9648 89.8009 22.3477C89.4728 22.7305 89.1369 23.0586 88.7931 23.332C88.4572 23.5977 88.1252 23.8203 87.797 24H86.2267V21.668H86.9884C87.1994 21.4727 87.4337 21.1914 87.6916 20.8242C87.9494 20.4492 88.1994 19.9609 88.4416 19.3594C88.6916 18.75 88.9103 17.9961 89.0978 17.0977C89.2853 16.1992 89.4142 15.1172 89.4845 13.8516L89.9064 6.9375ZM111.522 9.21094L106.424 24H103.342L109.764 6.9375H111.733L111.522 9.21094ZM115.787 24L110.678 9.21094L110.455 6.9375H112.436L118.881 24H115.787ZM115.541 17.6719V20.0039H106.26V17.6719H115.541ZM126.094 6.9375V24H123.176V6.9375H126.094ZM131.45 6.9375V9.28125H117.868V6.9375H131.45ZM135.64 13.4883H139.929C141.225 13.4883 142.335 13.707 143.257 14.1445C144.179 14.5742 144.882 15.1797 145.366 15.9609C145.85 16.7422 146.093 17.6523 146.093 18.6914C146.093 19.4727 145.956 20.1875 145.682 20.8359C145.409 21.4844 145.007 22.0469 144.475 22.5234C143.944 22.9922 143.296 23.3555 142.53 23.6133C141.772 23.8711 140.905 24 139.929 24H133.6V6.9375H136.554V21.668H139.929C140.671 21.668 141.28 21.5312 141.757 21.2578C142.233 20.9766 142.585 20.6094 142.811 20.1562C143.046 19.7031 143.163 19.207 143.163 18.668C143.163 18.1445 143.046 17.668 142.811 17.2383C142.585 16.8086 142.233 16.4648 141.757 16.207C141.28 15.9492 140.671 15.8203 139.929 15.8203H135.64V13.4883ZM160.566 16.2891H156.218L156.195 14.1445H159.992C160.632 14.1445 161.175 14.0508 161.62 13.8633C162.074 13.668 162.417 13.3906 162.652 13.0312C162.886 12.6641 163.003 12.2227 163.003 11.707C163.003 11.1367 162.894 10.6719 162.675 10.3125C162.456 9.95312 162.12 9.69141 161.667 9.52734C161.222 9.36328 160.652 9.28125 159.956 9.28125H157.109V24H154.167V6.9375H159.956C160.894 6.9375 161.73 7.02734 162.464 7.20703C163.206 7.38672 163.835 7.66797 164.351 8.05078C164.874 8.42578 165.269 8.90234 165.535 9.48047C165.808 10.0586 165.945 10.7461 165.945 11.543C165.945 12.2461 165.777 12.8906 165.441 13.4766C165.105 14.0547 164.609 14.5273 163.952 14.8945C163.296 15.2617 162.48 15.4805 161.503 15.5508L160.566 16.2891ZM160.437 24H155.292L156.617 21.668H160.437C161.101 21.668 161.656 21.5586 162.101 21.3398C162.546 21.1133 162.878 20.8047 163.097 20.4141C163.324 20.0156 163.437 19.5508 163.437 19.0195C163.437 18.4648 163.339 17.9844 163.144 17.5781C162.949 17.1641 162.64 16.8477 162.218 16.6289C161.796 16.4023 161.245 16.2891 160.566 16.2891H157.261L157.285 14.1445H161.585L162.253 14.9531C163.191 14.9844 163.96 15.1914 164.562 15.5742C165.171 15.957 165.624 16.4531 165.921 17.0625C166.218 17.6719 166.367 18.3281 166.367 19.0312C166.367 20.1172 166.128 21.0273 165.652 21.7617C165.183 22.4961 164.507 23.0547 163.624 23.4375C162.742 23.8125 161.679 24 160.437 24ZM182.697 15V15.9375C182.697 17.2266 182.529 18.3828 182.193 19.4062C181.857 20.4297 181.377 21.3008 180.752 22.0195C180.134 22.7383 179.392 23.2891 178.525 23.6719C177.658 24.0469 176.697 24.2344 175.642 24.2344C174.595 24.2344 173.638 24.0469 172.771 23.6719C171.912 23.2891 171.166 22.7383 170.533 22.0195C169.9 21.3008 169.408 20.4297 169.056 19.4062C168.712 18.3828 168.541 17.2266 168.541 15.9375V15C168.541 13.7109 168.712 12.5586 169.056 11.543C169.4 10.5195 169.884 9.64844 170.509 8.92969C171.142 8.20312 171.888 7.65234 172.748 7.27734C173.615 6.89453 174.572 6.70312 175.619 6.70312C176.673 6.70312 177.634 6.89453 178.502 7.27734C179.369 7.65234 180.115 8.20312 180.74 8.92969C181.365 9.64844 181.845 10.5195 182.181 11.543C182.525 12.5586 182.697 13.7109 182.697 15ZM179.755 15.9375V14.9766C179.755 14.0234 179.662 13.1836 179.474 12.457C179.295 11.7227 179.025 11.1094 178.666 10.6172C178.314 10.1172 177.88 9.74219 177.365 9.49219C176.849 9.23438 176.267 9.10547 175.619 9.10547C174.97 9.10547 174.392 9.23438 173.884 9.49219C173.377 9.74219 172.943 10.1172 172.584 10.6172C172.232 11.1094 171.962 11.7227 171.775 12.457C171.587 13.1836 171.494 14.0234 171.494 14.9766V15.9375C171.494 16.8906 171.587 17.7344 171.775 18.4688C171.962 19.2031 172.236 19.8242 172.595 20.332C172.962 20.832 173.4 21.2109 173.908 21.4688C174.416 21.7188 174.994 21.8438 175.642 21.8438C176.298 21.8438 176.88 21.7188 177.388 21.4688C177.896 21.2109 178.326 20.832 178.677 20.332C179.029 19.8242 179.295 19.2031 179.474 18.4688C179.662 17.7344 179.755 16.8906 179.755 15.9375ZM196.215 6.9375V9.28125H188.035V6.9375H196.215ZM198.465 6.9375V24H195.523V6.9375H198.465ZM187.449 6.9375H190.367L189.957 15.4102C189.902 16.6523 189.797 17.7461 189.64 18.6914C189.484 19.6367 189.273 20.4453 189.008 21.1172C188.742 21.7891 188.406 22.3398 188 22.7695C187.594 23.1914 187.105 23.5039 186.535 23.707C185.973 23.9023 185.312 24 184.555 24H183.805V21.668L184.262 21.6328C184.676 21.6016 185.031 21.5039 185.328 21.3398C185.633 21.168 185.89 20.918 186.101 20.5898C186.312 20.2539 186.488 19.8203 186.629 19.2891C186.769 18.7578 186.879 18.1094 186.957 17.3438C187.043 16.5781 187.105 15.6836 187.144 14.6602L187.449 6.9375ZM215.357 15V15.9375C215.357 17.2266 215.19 18.3828 214.854 19.4062C214.518 20.4297 214.037 21.3008 213.412 22.0195C212.795 22.7383 212.053 23.2891 211.186 23.6719C210.318 24.0469 209.357 24.2344 208.303 24.2344C207.256 24.2344 206.299 24.0469 205.432 23.6719C204.572 23.2891 203.826 22.7383 203.193 22.0195C202.561 21.3008 202.068 20.4297 201.717 19.4062C201.373 18.3828 201.201 17.2266 201.201 15.9375V15C201.201 13.7109 201.373 12.5586 201.717 11.543C202.061 10.5195 202.545 9.64844 203.17 8.92969C203.803 8.20312 204.549 7.65234 205.408 7.27734C206.275 6.89453 207.232 6.70312 208.279 6.70312C209.334 6.70312 210.295 6.89453 211.162 7.27734C212.029 7.65234 212.775 8.20312 213.4 8.92969C214.025 9.64844 214.506 10.5195 214.842 11.543C215.186 12.5586 215.357 13.7109 215.357 15ZM212.416 15.9375V14.9766C212.416 14.0234 212.322 13.1836 212.135 12.457C211.955 11.7227 211.686 11.1094 211.326 10.6172C210.975 10.1172 210.541 9.74219 210.025 9.49219C209.51 9.23438 208.928 9.10547 208.279 9.10547C207.631 9.10547 207.053 9.23438 206.545 9.49219C206.037 9.74219 205.604 10.1172 205.244 10.6172C204.893 11.1094 204.623 11.7227 204.436 12.457C204.248 13.1836 204.154 14.0234 204.154 14.9766V15.9375C204.154 16.8906 204.248 17.7344 204.436 18.4688C204.623 19.2031 204.897 19.8242 205.256 20.332C205.623 20.832 206.061 21.2109 206.568 21.4688C207.076 21.7188 207.654 21.8438 208.303 21.8438C208.959 21.8438 209.541 21.7188 210.049 21.4688C210.557 21.2109 210.986 20.832 211.338 20.332C211.69 19.8242 211.955 19.2031 212.135 18.4688C212.322 17.7344 212.416 16.8906 212.416 15.9375ZM228.137 18.4453H231.067C230.973 19.5625 230.66 20.5586 230.129 21.4336C229.598 22.3008 228.852 22.9844 227.891 23.4844C226.93 23.9844 225.762 24.2344 224.387 24.2344C223.332 24.2344 222.383 24.0469 221.539 23.6719C220.696 23.2891 219.973 22.75 219.371 22.0547C218.77 21.3516 218.309 20.5039 217.989 19.5117C217.676 18.5195 217.52 17.4102 217.52 16.1836V14.7656C217.52 13.5391 217.68 12.4297 218 11.4375C218.328 10.4453 218.797 9.59766 219.407 8.89453C220.016 8.18359 220.746 7.64062 221.598 7.26562C222.457 6.89062 223.422 6.70312 224.492 6.70312C225.852 6.70312 227 6.95312 227.938 7.45312C228.875 7.95313 229.602 8.64453 230.117 9.52734C230.641 10.4102 230.961 11.4219 231.078 12.5625H228.149C228.071 11.8281 227.899 11.1992 227.633 10.6758C227.375 10.1523 226.992 9.75391 226.485 9.48047C225.977 9.19922 225.313 9.05859 224.492 9.05859C223.821 9.05859 223.235 9.18359 222.735 9.43359C222.235 9.68359 221.817 10.0508 221.481 10.5352C221.145 11.0195 220.891 11.6172 220.719 12.3281C220.555 13.0312 220.473 13.8359 220.473 14.7422V16.1836C220.473 17.043 220.547 17.8242 220.696 18.5273C220.852 19.2227 221.086 19.8203 221.399 20.3203C221.719 20.8203 222.125 21.207 222.617 21.4805C223.11 21.7539 223.7 21.8906 224.387 21.8906C225.223 21.8906 225.899 21.7578 226.414 21.4922C226.938 21.2266 227.332 20.8398 227.598 20.332C227.871 19.8164 228.051 19.1875 228.137 18.4453ZM235.585 13.4883H239.885C241.182 13.4883 242.288 13.707 243.202 14.1445C244.124 14.5742 244.827 15.1797 245.311 15.9609C245.803 16.7422 246.049 17.6523 246.049 18.6914C246.049 19.4727 245.909 20.1875 245.628 20.8359C245.354 21.4844 244.952 22.0469 244.42 22.5234C243.889 22.9922 243.241 23.3555 242.475 23.6133C241.717 23.8711 240.854 24 239.885 24H233.557V6.9375H236.499V21.668H239.885C240.628 21.668 241.237 21.5312 241.713 21.2578C242.19 20.9766 242.542 20.6094 242.768 20.1562C243.003 19.7031 243.12 19.207 243.12 18.668C243.12 18.1445 243.003 17.668 242.768 17.2383C242.542 16.8086 242.19 16.4648 241.713 16.207C241.237 15.9492 240.628 15.8203 239.885 15.8203H235.585V13.4883ZM250.749 6.9375V24H247.807V6.9375H250.749Z" fill="#07003B"/>
<path d="M272.267 6.625V7.85938H266.783V18H265.283V6.625H272.267ZM266.431 11.2578H269.533C270.366 11.2578 271.069 11.3984 271.642 11.6797C272.215 11.9557 272.65 12.3438 272.947 12.8438C273.244 13.3438 273.392 13.9297 273.392 14.6016C273.392 15.1016 273.309 15.5599 273.142 15.9766C272.976 16.388 272.728 16.7474 272.4 17.0547C272.072 17.3568 271.668 17.5911 271.189 17.7578C270.71 17.9193 270.158 18 269.533 18H265.283V6.625H266.791V16.7734H269.533C270.09 16.7734 270.541 16.6719 270.884 16.4688C271.233 16.2604 271.489 15.9896 271.65 15.6562C271.811 15.3229 271.892 14.9661 271.892 14.5859C271.892 14.2057 271.811 13.8568 271.65 13.5391C271.489 13.2214 271.233 12.9688 270.884 12.7812C270.541 12.5885 270.09 12.4922 269.533 12.4922H266.431V11.2578ZM276.482 11.2578H279.584C280.417 11.2578 281.12 11.3984 281.693 11.6797C282.266 11.9557 282.701 12.3438 282.998 12.8438C283.295 13.3438 283.443 13.9297 283.443 14.6016C283.443 15.1016 283.36 15.5599 283.193 15.9766C283.026 16.388 282.779 16.7474 282.451 17.0547C282.123 17.3568 281.719 17.5911 281.24 17.7578C280.761 17.9193 280.209 18 279.584 18H275.334V6.625H276.842V16.7734H279.584C280.141 16.7734 280.592 16.6719 280.935 16.4688C281.284 16.2604 281.539 15.9896 281.701 15.6562C281.862 15.3229 281.943 14.9661 281.943 14.5859C281.943 14.2057 281.862 13.8568 281.701 13.5391C281.539 13.2214 281.284 12.9688 280.935 12.7812C280.592 12.5885 280.141 12.4922 279.584 12.4922H276.482V11.2578ZM286.326 6.625V18H284.818V6.625H286.326ZM295.814 14.3828H297.314C297.236 15.1016 297.031 15.7448 296.697 16.3125C296.364 16.8802 295.892 17.3307 295.283 17.6641C294.674 17.9922 293.913 18.1562 293.002 18.1562C292.335 18.1562 291.728 18.0312 291.182 17.7812C290.64 17.5312 290.174 17.1771 289.783 16.7188C289.392 16.2552 289.09 15.7005 288.877 15.0547C288.669 14.4036 288.564 13.6797 288.564 12.8828V11.75C288.564 10.9531 288.669 10.2318 288.877 9.58594C289.09 8.9349 289.395 8.3776 289.791 7.91406C290.192 7.45052 290.674 7.09375 291.236 6.84375C291.799 6.59375 292.432 6.46875 293.135 6.46875C293.994 6.46875 294.721 6.63021 295.314 6.95312C295.908 7.27604 296.369 7.72396 296.697 8.29688C297.031 8.86458 297.236 9.52344 297.314 10.2734H295.814C295.741 9.74219 295.606 9.28646 295.408 8.90625C295.21 8.52083 294.929 8.22396 294.564 8.01562C294.2 7.80729 293.723 7.70312 293.135 7.70312C292.629 7.70312 292.184 7.79948 291.799 7.99219C291.419 8.1849 291.098 8.45833 290.838 8.8125C290.583 9.16667 290.39 9.59115 290.26 10.0859C290.129 10.5807 290.064 11.1302 290.064 11.7344V12.8828C290.064 13.4401 290.122 13.9635 290.236 14.4531C290.356 14.9427 290.536 15.3724 290.775 15.7422C291.015 16.112 291.32 16.4036 291.689 16.6172C292.059 16.8255 292.497 16.9297 293.002 16.9297C293.642 16.9297 294.153 16.8281 294.533 16.625C294.913 16.4219 295.2 16.1302 295.392 15.75C295.59 15.3698 295.731 14.9141 295.814 14.3828ZM303.178 6.625V18H301.693V6.625H303.178ZM306.834 6.625V7.85938H298.045V6.625H306.834ZM312.557 13.5391H309.518V12.3125H312.557C313.145 12.3125 313.622 12.2188 313.987 12.0312C314.351 11.8438 314.617 11.5833 314.783 11.25C314.955 10.9167 315.041 10.5365 315.041 10.1094C315.041 9.71875 314.955 9.35156 314.783 9.00781C314.617 8.66406 314.351 8.38802 313.987 8.17969C313.622 7.96615 313.145 7.85938 312.557 7.85938H309.869V18H308.362V6.625H312.557C313.416 6.625 314.143 6.77344 314.737 7.07031C315.33 7.36719 315.781 7.77865 316.088 8.30469C316.395 8.82552 316.549 9.42188 316.549 10.0938C316.549 10.8229 316.395 11.4453 316.088 11.9609C315.781 12.4766 315.33 12.8698 314.737 13.1406C314.143 13.4062 313.416 13.5391 312.557 13.5391ZM327.053 11.9531V12.6719C327.053 13.526 326.946 14.2917 326.733 14.9688C326.519 15.6458 326.212 16.2214 325.811 16.6953C325.41 17.1693 324.928 17.5312 324.366 17.7812C323.808 18.0312 323.183 18.1562 322.491 18.1562C321.819 18.1562 321.202 18.0312 320.639 17.7812C320.082 17.5312 319.597 17.1693 319.186 16.6953C318.78 16.2214 318.465 15.6458 318.241 14.9688C318.017 14.2917 317.905 13.526 317.905 12.6719V11.9531C317.905 11.099 318.014 10.3359 318.233 9.66406C318.457 8.98698 318.772 8.41146 319.178 7.9375C319.584 7.45833 320.066 7.09375 320.623 6.84375C321.186 6.59375 321.803 6.46875 322.475 6.46875C323.168 6.46875 323.793 6.59375 324.35 6.84375C324.912 7.09375 325.394 7.45833 325.795 7.9375C326.202 8.41146 326.511 8.98698 326.725 9.66406C326.944 10.3359 327.053 11.099 327.053 11.9531ZM325.561 12.6719V11.9375C325.561 11.2604 325.491 10.6615 325.35 10.1406C325.215 9.61979 325.014 9.18229 324.748 8.82812C324.483 8.47396 324.157 8.20573 323.772 8.02344C323.392 7.84115 322.959 7.75 322.475 7.75C322.006 7.75 321.582 7.84115 321.202 8.02344C320.827 8.20573 320.504 8.47396 320.233 8.82812C319.967 9.18229 319.761 9.61979 319.616 10.1406C319.47 10.6615 319.397 11.2604 319.397 11.9375V12.6719C319.397 13.3542 319.47 13.9583 319.616 14.4844C319.761 15.0052 319.97 15.4453 320.241 15.8047C320.517 16.1589 320.842 16.4271 321.217 16.6094C321.597 16.7917 322.022 16.8828 322.491 16.8828C322.98 16.8828 323.415 16.7917 323.795 16.6094C324.176 16.4271 324.496 16.1589 324.756 15.8047C325.022 15.4453 325.222 15.0052 325.358 14.4844C325.493 13.9583 325.561 13.3542 325.561 12.6719Z" fill="#07003B"/>
<line x1="262" y1="21.5" x2="330" y2="21.5" stroke="#F9D11F" stroke-width="3"/>
<g clip-path="url(#clip0_22_186)">
<circle cx="19" cy="15" r="15" fill="#EDC048"/>
<g style="mix-blend-mode:darken">
<path d="M11.9274 19.1596L18.1552 17.0084C18.1325 16.2063 18.1016 15.5067 18.0756 15.0199C17.3509 15.5352 16.7698 15.9289 16.456 16.1063C15.2834 16.7671 12.2622 17.6958 10.7386 18.1439C8.933 17.1594 6.30065 17.5231 4.55152 19.0931C2.63847 20.809 2.47345 23.2839 4.17381 24.7262C4.20397 24.7527 4.23601 24.7771 4.26677 24.8037C6.04615 26.2137 9.06906 25.948 11.0041 24.2095C12.6783 22.7053 13.0141 20.6227 11.9274 19.1596ZM5.14123 24.0174L5.07853 23.9654C3.88607 22.9545 4.06681 21.0992 5.48073 19.8295C6.93515 18.5243 9.14868 18.2792 10.4137 19.2833L10.477 19.3342C11.6706 20.3441 11.4881 22.1993 10.0743 23.4701C8.62038 24.7752 6.40755 25.0214 5.14123 24.0174Z" fill="black"/>
<path d="M20.6167 29.9172C21.9986 28.1649 21.8952 25.9547 20.3703 24.6625C20.3494 24.6448 20.3262 24.63 20.3053 24.6135C20.246 23.4014 20.2925 20.7736 21.428 17.783C21.6011 16.5613 31.7729 0.214714 31.7729 0.214714L31.0685 0L18.9565 14.4467C18.9565 14.4467 19.4314 21.1227 18.6764 23.829C16.789 23.3789 14.546 24.127 13.2437 25.7783C11.8618 27.5305 11.9659 29.7397 13.4901 31.032C13.672 31.187 13.8748 31.3272 14.091 31.4477C16.1225 32.59 19.0502 31.9027 20.6167 29.9172ZM20.2634 15.2375C19.9612 14.9817 19.9635 14.5669 20.2657 14.3119C20.5703 14.057 21.0606 14.057 21.364 14.3139C21.6662 14.5698 21.665 14.9845 21.3617 15.2395C21.0573 15.4959 20.5656 15.4949 20.2634 15.2375ZM14.797 30.5516C14.6517 30.4711 14.5157 30.3771 14.3949 30.2732C13.296 29.3416 13.2593 27.7032 14.3065 26.3745C15.4821 24.8841 17.6164 24.3311 19.0634 25.1439C19.2087 25.2254 19.3441 25.3194 19.4667 25.4214C20.5644 26.353 20.6028 27.9924 19.555 29.3201C18.3777 30.8124 16.2439 31.3635 14.797 30.5516Z" fill="black"/>
<path d="M35.4908 2.50821L34.9561 2.05519L28.0724 7.48542C26.8172 9.55287 25.5144 11.7243 24.4625 13.5329L35.4908 2.50821Z" fill="black"/>
</g>
</g>
<defs>
<clipPath id="clip0_22_186">
<rect width="35" height="32" fill="white"/>
</clipPath>
</defs>
</svg>
